<?xml version="1.0" encoding="UTF-8" standalone="no"?>
<svg
   xmlns:dc="http://purl.org/dc/elements/1.1/"
   xmlns:cc="http://creativecommons.org/ns#"
   xmlns:rdf="http://www.w3.org/1999/02/22-rdf-syntax-ns#"
   xmlns:svg="http://www.w3.org/2000/svg"
   xmlns="http://www.w3.org/2000/svg"
   viewBox="0 0 793.70667 559.37335"
   height="559.37335"
   width="793.70667"
   id="svg2"
   version="1.1"><metadata
     id="metadata8"><rdf:RDF><cc:Work
         rdf:about=""><dc:format>image/svg+xml</dc:format><dc:type
           rdf:resource="http://purl.org/dc/dcmitype/StillImage" /></cc:Work></rdf:RDF></metadata><defs
     id="defs6"><clipPath
       id="clipPath20"
       clipPathUnits="userSpaceOnUse"><path
         id="path18"
         d="m 3657.9,1846.78 c 0,0 -101.89,-65.12 -154.33,-78.61 -45.43,-11.68 -220.1,-32.29 -356.61,-37.6 -4.76,45.36 -20.01,132.44 -68.94,219.6 -73.76,131.41 -175.31,247.23 -202.28,268.17 -26.97,20.93 -22.47,104.93 -4.49,122.9 17.98,17.98 44.95,4.5 67.43,35.97 22.47,31.46 -13.49,123.07 -49.45,139.34 -35.96,16.28 -62.93,-16.27 -94.4,-71.92 -14.9,-26.35 -24.84,-43.55 -37.3,-51.83 10.96,-2.62 25.34,-8.13 37.3,-20.09 22.48,-22.47 31.47,-31.46 31.47,-31.46 l -76.12,48.07 c -12.68,-4.5 -28.59,-1.48 -54.24,10.36 -58.44,26.97 -188.8,92.67 -359.61,92.67 -170.82,0 -247.24,-119.64 -310.17,-119.64 -1.26,0 -2.37,0.22 -3.59,0.28 l -76.4,-56.07 c 0,0 8.34,9.6 29.2,33.58 12,13.81 27.35,20.28 38.34,23.38 -51.95,9.42 -63.89,77.14 -122.4,102.22 -62.93,26.97 -80.92,-17.98 -76.42,-94.4 -24.2,-80.91 60.25,-53.94 80.91,-85.4 20.67,-31.47 44.96,-35.97 -26.97,-130.36 -60.98,-80.05 -96.01,-208.2 -105.28,-245.44 -55.71,-0.28 -105.51,-0.84 -141.95,-1.8 -170.82,-4.49 -489.97,-134.85 -489.97,-134.85 0,0 53.94,8.99 224.76,35.96 143.39,22.64 280,16.49 448.41,-9.91 31.03,60.73 70.21,110.59 131.08,155.13 3.37,2.47 90.67,76.45 182.95,86.56 125.38,13.73 116.14,16.1 125.88,53.89 3.85,14.93 8.92,53.4 18,-0.2 9.09,-53.59 -47.76,-71.85 -120.55,-72.75 -71.96,-0.89 -170.84,-54.7 -243.46,-143.37 -25.75,-31.43 -42.86,-59.55 -54.68,-85.63 19.92,-3.38 39.87,-6.8 60.77,-10.69 209.73,-39.1 433.98,-153.28 976.26,-173.08 24.54,7.82 101.87,36.56 98.08,87.67 -4.49,60.69 -13.48,123.62 -89.9,209.02 -76.42,85.41 -177.56,134.86 -249.48,132.61 -72.76,-2.27 -130.36,13.49 -123.62,67.43 6.75,53.94 13.49,15.73 17.98,0.98 11.38,-37.33 2.25,-40.1 128.12,-48.35 92.63,-6.07 183.07,-76.18 186.54,-78.49 84.7,-56.47 130.43,-124.24 170.82,-215.77 27.55,-62.46 25.08,-132.83 23.26,-156.49 496.49,15.45 615.05,228.41 615.05,228.41 z m -1711.27,354.58 c 7.78,-14.03 27.31,-19.71 41.21,-23.18 23.28,-5.8 45.58,-5.12 62.66,0.47 -2.68,-2.61 -5.28,-5.29 -8.45,-7.51 -34.24,-23.97 -73.69,-17.25 -98.12,17.63 -6.48,9.26 4.66,2.22 2.7,12.59 z m 14.16,29.67 c -17.98,13.48 -7.87,40.45 10.12,40.45 17.98,0 71.92,-44.95 71.92,-44.95 0,0 -64.06,-8.99 -82.04,4.5 z m 112.57,5.03 c -3.4,4.83 -8.03,9.39 -13.24,13.75 -9.09,11.22 -21.27,21.9 -36.54,30.36 -26.77,14.84 -54.7,19.09 -74.42,13.45 1.52,1.25 2.8,2.7 4.44,3.84 34.24,23.98 81.79,15.13 106.21,-19.75 8.95,-12.77 13.07,-27.24 13.55,-41.65 z m 67.68,-331.58 c 2.25,33.72 11.69,32.85 28.48,27.27 19.08,-6.34 9.73,-18.62 14.22,-36.55 4.5,-17.93 20.13,-37.91 20.13,-37.91 v -4.5 c 0,0 -65.08,17.98 -62.83,51.69 z m 139.35,-16.65 c -1.26,31.99 -15.99,61.49 -43.11,78.12 -36.16,22.15 -82.69,14.58 -116.43,-14.82 31.98,50.69 89.92,71.87 130.29,47.13 33.46,-20.5 43.95,-66.09 29.25,-110.43 z m 312.26,-14.08 c 0,0 15.63,19.99 20.13,37.92 4.49,17.93 -4.86,30.21 14.23,36.55 16.79,5.58 26.22,6.44 28.47,-27.27 2.25,-33.71 -62.83,-51.69 -62.83,-51.69 z m -47.27,130.43 c 40.37,24.73 98.31,3.56 130.29,-47.14 -33.74,29.4 -80.27,36.97 -116.43,14.81 -27.12,-16.61 -41.85,-46.12 -43.11,-78.11 -14.7,44.34 -4.21,89.93 29.25,110.44 z m 284.68,305.27 c -19.72,5.63 -47.65,1.38 -74.42,-13.46 -15.27,-8.46 -27.45,-19.14 -36.54,-30.36 -5.21,-4.36 -9.84,-8.92 -13.24,-13.75 0.48,14.41 4.6,28.88 13.55,41.65 24.42,34.88 71.97,43.73 106.21,19.76 1.64,-1.15 2.92,-2.59 4.44,-3.84 z m -21.74,-22.15 c 17.98,0 28.09,-26.97 10.11,-40.45 -17.98,-13.49 -82.04,-4.5 -82.04,-4.5 0,0 53.95,44.95 71.93,44.95 z m 26.97,-82.71 c -24.43,-34.88 -63.88,-41.6 -98.12,-17.62 -3.16,2.21 -5.76,4.89 -8.45,7.5 17.08,-5.59 39.38,-6.27 62.66,-0.47 13.91,3.47 33.43,9.15 41.21,23.18 -1.96,-10.37 9.18,-3.32 2.7,-12.59 z" /></clipPath><linearGradient
       id="linearGradient32"
       spreadMethod="pad"
       gradientTransform="matrix(0,-902.381,-902.381,0,3657.9,2520.75)"
       gradientUnits="userSpaceOnUse"
       y2="0"
       x2="1"
       y1="0"
       x1="0"><stop
         id="stop22"
         offset="0"
         style="stop-opacity:1;stop-color:#565353" /><stop
         id="stop24"
         offset="0.0040234"
         style="stop-opacity:1;stop-color:#565353" /><stop
         id="stop26"
         offset="0.010989"
         style="stop-opacity:1;stop-color:#565353" /><stop
         id="stop28"
         offset="0.37309538"
         style="stop-opacity:1;stop-color:#565353" /><stop
         id="stop30"
         offset="1"
         style="stop-opacity:1;stop-color:#a3a1a1" /></linearGradient><clipPath
       id="clipPath42"
       clipPathUnits="userSpaceOnUse"><path
         id="path40"
         d="m 664.133,1532.12 c 0,0 507.947,251.09 957.467,202.28 449.51,-48.8 561.89,-132.6 1020.4,-191.04 459.02,-58.5 878.8,21.41 1161.99,203.41 283.19,181.99 285.44,207.9 285.44,207.9 0,0 -304.17,-332.31 -675.77,-465.08 -371.6,-132.78 -908.77,-101.61 -1252.64,-7.47 -352.54,96.51 -665.29,153.39 -831.61,153.39 -166.32,0 -346.121,-13.48 -480.976,-49.45 -134.852,-35.96 -184.301,-53.94 -184.301,-53.94 z" /></clipPath><linearGradient
       id="linearGradient50"
       spreadMethod="pad"
       gradientTransform="matrix(3425.3,0,0,-3425.3,664.134,1400.53)"
       gradientUnits="userSpaceOnUse"
       y2="0"
       x2="1"
       y1="0"
       x1="0"><stop
         id="stop44"
         offset="0"
         style="stop-opacity:1;stop-color:#477217" /><stop
         id="stop46"
         offset="0.489011"
         style="stop-opacity:1;stop-color:#85c527" /><stop
         id="stop48"
         offset="1"
         style="stop-opacity:1;stop-color:#ffffff" /></linearGradient><clipPath
       id="clipPath60"
       clipPathUnits="userSpaceOnUse"><path
         id="path58"
         d="m 3381.05,2228.53 -37.49,-428.59 1769.43,-154.8 37.5,428.59 z" /></clipPath><linearGradient
       id="linearGradient68"
       spreadMethod="pad"
       gradientTransform="matrix(1769.44,-154.806,-154.806,-1769.44,3343.56,1799.94)"
       gradientUnits="userSpaceOnUse"
       y2="0"
       x2="1"
       y1="0"
       x1="0"><stop
         id="stop62"
         offset="0"
         style="stop-opacity:1;stop-color:#85c527" /><stop
         id="stop64"
         offset="0.401099"
         style="stop-opacity:1;stop-color:#85c527" /><stop
         id="stop66"
         offset="1"
         style="stop-opacity:1;stop-color:#477217" /></linearGradient></defs><g
     transform="matrix(1.3333333,0,0,-1.3333333,0,559.37333)"
     id="g10"><g
       transform="scale(0.1)"
       id="g12"><g
         id="g14"><g
           clip-path="url(#clipPath20)"
           id="g16"><path
             id="path34"
             style="fill:url(#linearGradient32);fill-opacity:1;fill-rule:nonzero;stroke:none"
             d="m 3657.9,1846.78 c 0,0 -101.89,-65.12 -154.33,-78.61 -45.43,-11.68 -220.1,-32.29 -356.61,-37.6 -4.76,45.36 -20.01,132.44 -68.94,219.6 -73.76,131.41 -175.31,247.23 -202.28,268.17 -26.97,20.93 -22.47,104.93 -4.49,122.9 17.98,17.98 44.95,4.5 67.43,35.97 22.47,31.46 -13.49,123.07 -49.45,139.34 -35.96,16.28 -62.93,-16.27 -94.4,-71.92 -14.9,-26.35 -24.84,-43.55 -37.3,-51.83 10.96,-2.62 25.34,-8.13 37.3,-20.09 22.48,-22.47 31.47,-31.46 31.47,-31.46 l -76.12,48.07 c -12.68,-4.5 -28.59,-1.48 -54.24,10.36 -58.44,26.97 -188.8,92.67 -359.61,92.67 -170.82,0 -247.24,-119.64 -310.17,-119.64 -1.26,0 -2.37,0.22 -3.59,0.28 l -76.4,-56.07 c 0,0 8.34,9.6 29.2,33.58 12,13.81 27.35,20.28 38.34,23.38 -51.95,9.42 -63.89,77.14 -122.4,102.22 -62.93,26.97 -80.92,-17.98 -76.42,-94.4 -24.2,-80.91 60.25,-53.94 80.91,-85.4 20.67,-31.47 44.96,-35.97 -26.97,-130.36 -60.98,-80.05 -96.01,-208.2 -105.28,-245.44 -55.71,-0.28 -105.51,-0.84 -141.95,-1.8 -170.82,-4.49 -489.97,-134.85 -489.97,-134.85 0,0 53.94,8.99 224.76,35.96 143.39,22.64 280,16.49 448.41,-9.91 31.03,60.73 70.21,110.59 131.08,155.13 3.37,2.47 90.67,76.45 182.95,86.56 125.38,13.73 116.14,16.1 125.88,53.89 3.85,14.93 8.92,53.4 18,-0.2 9.09,-53.59 -47.76,-71.85 -120.55,-72.75 -71.96,-0.89 -170.84,-54.7 -243.46,-143.37 -25.75,-31.43 -42.86,-59.55 -54.68,-85.63 19.92,-3.38 39.87,-6.8 60.77,-10.69 209.73,-39.1 433.98,-153.28 976.26,-173.08 24.54,7.82 101.87,36.56 98.08,87.67 -4.49,60.69 -13.48,123.62 -89.9,209.02 -76.42,85.41 -177.56,134.86 -249.48,132.61 -72.76,-2.27 -130.36,13.49 -123.62,67.43 6.75,53.94 13.49,15.73 17.98,0.98 11.38,-37.33 2.25,-40.1 128.12,-48.35 92.63,-6.07 183.07,-76.18 186.54,-78.49 84.7,-56.47 130.43,-124.24 170.82,-215.77 27.55,-62.46 25.08,-132.83 23.26,-156.49 496.49,15.45 615.05,228.41 615.05,228.41 z m -1711.27,354.58 c 7.78,-14.03 27.31,-19.71 41.21,-23.18 23.28,-5.8 45.58,-5.12 62.66,0.47 -2.68,-2.61 -5.28,-5.29 -8.45,-7.51 -34.24,-23.97 -73.69,-17.25 -98.12,17.63 -6.48,9.26 4.66,2.22 2.7,12.59 z m 14.16,29.67 c -17.98,13.48 -7.87,40.45 10.12,40.45 17.98,0 71.92,-44.95 71.92,-44.95 0,0 -64.06,-8.99 -82.04,4.5 z m 112.57,5.03 c -3.4,4.83 -8.03,9.39 -13.24,13.75 -9.09,11.22 -21.27,21.9 -36.54,30.36 -26.77,14.84 -54.7,19.09 -74.42,13.45 1.52,1.25 2.8,2.7 4.44,3.84 34.24,23.98 81.79,15.13 106.21,-19.75 8.95,-12.77 13.07,-27.24 13.55,-41.65 z m 67.68,-331.58 c 2.25,33.72 11.69,32.85 28.48,27.27 19.08,-6.34 9.73,-18.62 14.22,-36.55 4.5,-17.93 20.13,-37.91 20.13,-37.91 v -4.5 c 0,0 -65.08,17.98 -62.83,51.69 z m 139.35,-16.65 c -1.26,31.99 -15.99,61.49 -43.11,78.12 -36.16,22.15 -82.69,14.58 -116.43,-14.82 31.98,50.69 89.92,71.87 130.29,47.13 33.46,-20.5 43.95,-66.09 29.25,-110.43 z m 312.26,-14.08 c 0,0 15.63,19.99 20.13,37.92 4.49,17.93 -4.86,30.21 14.23,36.55 16.79,5.58 26.22,6.44 28.47,-27.27 2.25,-33.71 -62.83,-51.69 -62.83,-51.69 z m -47.27,130.43 c 40.37,24.73 98.31,3.56 130.29,-47.14 -33.74,29.4 -80.27,36.97 -116.43,14.81 -27.12,-16.61 -41.85,-46.12 -43.11,-78.11 -14.7,44.34 -4.21,89.93 29.25,110.44 z m 284.68,305.27 c -19.72,5.63 -47.65,1.38 -74.42,-13.46 -15.27,-8.46 -27.45,-19.14 -36.54,-30.36 -5.21,-4.36 -9.84,-8.92 -13.24,-13.75 0.48,14.41 4.6,28.88 13.55,41.65 24.42,34.88 71.97,43.73 106.21,19.76 1.64,-1.15 2.92,-2.59 4.44,-3.84 z m -21.74,-22.15 c 17.98,0 28.09,-26.97 10.11,-40.45 -17.98,-13.49 -82.04,-4.5 -82.04,-4.5 0,0 53.95,44.95 71.93,44.95 z m 26.97,-82.71 c -24.43,-34.88 -63.88,-41.6 -98.12,-17.62 -3.16,2.21 -5.76,4.89 -8.45,7.5 17.08,-5.59 39.38,-6.27 62.66,-0.47 13.91,3.47 33.43,9.15 41.21,23.18 -1.96,-10.37 9.18,-3.32 2.7,-12.59" /></g></g><g
         id="g36"><g
           clip-path="url(#clipPath42)"
           id="g38"><path
             id="path52"
             style="fill:url(#linearGradient50);fill-opacity:1;fill-rule:nonzero;stroke:none"
             d="m 664.133,1532.12 c 0,0 507.947,251.09 957.467,202.28 449.51,-48.8 561.89,-132.6 1020.4,-191.04 459.02,-58.5 878.8,21.41 1161.99,203.41 283.19,181.99 285.44,207.9 285.44,207.9 0,0 -304.17,-332.31 -675.77,-465.08 -371.6,-132.78 -908.77,-101.61 -1252.64,-7.47 -352.54,96.51 -665.29,153.39 -831.61,153.39 -166.32,0 -346.121,-13.48 -480.976,-49.45 -134.852,-35.96 -184.301,-53.94 -184.301,-53.94" /></g></g><g
         id="g54"><g
           clip-path="url(#clipPath60)"
           id="g56"><path
             id="path70"
             style="fill:url(#linearGradient68);fill-opacity:1;fill-rule:nonzero;stroke:none"
             d="m 3381.05,2228.53 -37.49,-428.59 1769.43,-154.8 37.5,428.59 -1769.44,154.8" /></g></g><path
         id="path72"
         style="fill:#7b7979;fill-opacity:1;fill-rule:nonzero;stroke:none"
         d="m 3374.33,2131.01 v 404.42 h -99.4 V 2379.8 h -105.65 v 155.63 h -99.4 v -404.42 h 99.4 v 160.18 h 105.65 v -160.18 z m 376.58,202.21 c 0,60.78 1.71,117.58 -40.89,160.18 -29.54,29.54 -63.62,45.44 -113.04,45.44 -49.41,0 -83.49,-15.9 -113.03,-45.44 -42.6,-42.6 -40.9,-99.4 -40.9,-160.18 0,-60.77 -1.7,-117.57 40.9,-160.17 29.54,-29.54 63.62,-45.45 113.03,-45.45 49.42,0 83.5,15.91 113.04,45.45 42.6,42.6 40.89,99.4 40.89,160.17 z m -99.4,0 c 0,-73.84 -5.68,-86.9 -14.77,-98.83 -7.38,-9.66 -21.58,-18.18 -39.76,-18.18 -18.17,0 -32.37,8.52 -39.76,18.18 -9.09,11.93 -14.77,24.99 -14.77,98.83 0,73.84 5.68,87.48 14.77,99.41 7.39,9.65 21.59,17.6 39.76,17.6 18.18,0 32.38,-7.95 39.76,-17.6 9.09,-11.93 14.77,-25.57 14.77,-99.41 z m 437.37,-202.21 v 88.61 h -169.84 v 315.81 h -99.4 v -404.42 z m 327.16,0 v 88.61 h -169.83 v 315.81 h -99.4 v -404.42 z m 341.38,202.21 c 0,60.78 1.7,117.58 -40.9,160.18 -29.54,29.54 -63.62,45.44 -113.03,45.44 -49.42,0 -83.5,-15.9 -113.04,-45.44 -42.6,-42.6 -40.89,-99.4 -40.89,-160.18 0,-60.77 -1.71,-117.57 40.89,-160.17 29.54,-29.54 63.62,-45.45 113.04,-45.45 49.41,0 83.49,15.91 113.03,45.45 42.6,42.6 40.9,99.4 40.9,160.17 z m -99.4,0 c 0,-73.84 -5.68,-86.9 -14.77,-98.83 -7.39,-9.66 -21.59,-18.18 -39.76,-18.18 -18.18,0 -32.38,8.52 -39.76,18.18 -9.09,11.93 -14.77,24.99 -14.77,98.83 0,73.84 5.68,87.48 14.77,99.41 7.38,9.65 21.58,17.6 39.76,17.6 18.17,0 32.37,-7.95 39.76,-17.6 9.09,-11.93 14.77,-25.57 14.77,-99.41 z m 636.17,202.21 h -103.95 l -52.82,-213.57 -65.32,213.57 h -70.44 l -65.32,-213.57 -52.82,213.57 h -103.95 l 111.33,-404.42 h 80.66 l 65.32,199.37 65.32,-199.37 h 81.23 l 110.76,404.42" /><path
         id="path74"
         style="fill:#393536;fill-opacity:1;fill-rule:nonzero;stroke:none"
         d="m 2996.45,2561.48 v 401.93 h -98.78 v -154.68 h -105 v 154.68 h -98.79 v -401.93 h 98.79 v 159.19 h 105 v -159.19 z m 180.08,0 v 401.93 h -98.79 v -401.93 z m 377.64,272.66 c 0,66.04 -47.98,129.27 -137.17,129.27 h -159.19 v -401.93 h 98.79 v 143.38 h 60.4 c 89.19,0 137.17,63.23 137.17,129.28 z m -98.78,0 c 0,-20.89 -15.81,-40.65 -42.91,-40.65 h -55.88 v 81.29 h 55.88 c 27.1,0 42.91,-19.76 42.91,-40.64 z m 452.73,0 c 0,66.04 -47.98,129.27 -137.18,129.27 h -159.19 v -401.93 h 98.79 v 143.38 h 60.4 c 89.2,0 137.18,63.23 137.18,129.28 z m -98.79,0 c 0,-20.89 -15.81,-40.65 -42.9,-40.65 h -55.89 v 81.29 h 55.89 c 27.09,0 42.9,-19.76 42.9,-40.64 z m 449.35,-71.7 c 0,60.41 1.69,116.86 -40.65,159.19 -29.35,29.36 -63.22,45.17 -112.33,45.17 -49.12,0 -82.99,-15.81 -112.34,-45.17 -42.34,-42.33 -40.64,-98.78 -40.64,-159.19 0,-60.4 -1.7,-116.85 40.64,-159.19 29.35,-29.35 63.22,-45.16 112.34,-45.16 49.11,0 82.98,15.81 112.33,45.16 42.34,42.34 40.65,98.79 40.65,159.19 z m -98.79,0 c 0,-73.38 -5.65,-86.37 -14.68,-98.22 -7.34,-9.6 -21.45,-18.07 -39.51,-18.07 -18.07,0 -32.18,8.47 -39.52,18.07 -9.03,11.85 -14.68,24.84 -14.68,98.22 0,73.39 5.65,86.94 14.68,98.79 7.34,9.6 21.45,17.5 39.52,17.5 18.06,0 32.17,-7.9 39.51,-17.5 9.03,-11.85 14.68,-25.4 14.68,-98.79" /><path
         id="path76"
         style="fill:#ffffff;fill-opacity:1;fill-rule:nonzero;stroke:none"
         d="m 3599.01,2122.77 -2.24,-25.55 44.71,-3.91 -19.48,-222.64 -44.71,3.91 -2.23,-25.54 153.29,-13.41 2.24,25.54 -80.3,7.03 9.06,103.56 62.5,-5.47 -3.75,-42.88 28.29,-2.48 9.38,107.22 -28.29,2.47 -3.39,-38.78 -62.5,5.47 8.18,93.53 76.65,-6.71 c 36.04,-3.15 37.38,-8.79 34.19,-45.28 l -1.04,-11.87 28.29,-2.47 6.94,79.38 z m 385.92,-8.02 -127.52,-264.67 -22.81,1.99 -2.23,-25.55 91.24,-7.98 2.24,25.55 -39.69,3.47 26.59,56.98 108.58,-9.5 16.75,-60.77 -39.24,3.43 -2.23,-25.54 92.16,-8.07 2.23,25.55 -22.81,2 z m 29.51,-193.36 -90.79,7.94 55.69,121.55 z m 190.2,119.43 c 16.58,0.39 32.21,0.4 47.27,-0.91 31.93,-2.8 55.83,-18.68 52.79,-53.35 -2.59,-29.66 -26.9,-50.06 -84.76,-44.07 l -23.69,2.53 z m 64.22,-122.38 c 36.96,7.34 62.38,29.94 65.78,68.72 4.39,50.18 -35.79,74.38 -80.96,78.34 -23.26,2.03 -47.47,-1.37 -70.73,0.67 -15.51,1.35 -27.63,4.71 -41.5,9.14 l -2.11,-24.18 37.01,-7.83 -19.2,-219.45 -37.41,3.28 -2.24,-25.55 109.04,-9.54 2.24,25.55 -43.34,3.79 8.66,99 44.25,-3.87 72.14,-131.82 50.18,-4.39 2.24,25.55 -32.85,2.88 z m 135.38,133.88 -2.24,-25.54 31.94,-2.8 -19.48,-222.64 -31.94,2.8 -2.23,-25.55 98.09,-8.58 2.23,25.55 -37.87,3.31 17.01,194.35 0.91,-0.08 53.8,-152.28 79.42,140.63 0.91,-0.08 -17,-194.36 -37.41,3.28 -2.24,-25.55 97.63,-8.54 2.24,25.54 -31.94,2.8 19.48,222.64 31.94,-2.8 2.23,25.55 -65.24,5.71 -74.44,-130.94 -50.56,141.88 z m 310.63,-96.13 c -8.75,-99.91 142.53,-68.1 135.42,-149.3 -3.03,-34.68 -36.66,-45.99 -63.58,-43.63 -42.43,3.71 -59.24,21.73 -60.51,54.48 l -0.82,22.14 -27.74,-1.71 c 1.58,-13.47 3.58,-27.44 1.01,-41 l -8.79,-47.96 27.06,-6.05 2.84,16.76 c 20.9,-13.32 37.34,-19.82 62.44,-22.01 51.55,-4.51 93.96,23.04 97.99,69.12 8.94,102.19 -141.94,74.94 -135.51,148.39 3.03,34.67 39.2,43.46 64.29,41.27 20.53,-1.8 39.26,-8.49 46.53,-25.22 4.93,-11.93 2.88,-30.13 2.67,-42.99 l 28.19,1.67 c -1.58,13.47 -3.16,26.94 -0.59,40.51 l 8.1,45.26 -26.94,7.42 -4.29,-17.56 c -13.92,9.04 -34.09,14.94 -50.52,16.38 -44.25,3.87 -92.94,-16.7 -97.25,-65.97" /><path
         id="path78"
         style="fill:#565353;fill-opacity:1;fill-rule:nonzero;stroke:none"
         d="m 1933.91,1382.16 22.1,99.17 -14.12,3.14 -9.65,-43.32 -25.99,5.79 9.65,43.33 -14.12,3.14 -22.09,-99.17 14.11,-3.14 10.03,44.99 25.99,-5.79 -10.03,-44.99 z m 51.01,-11.45 15.94,70.87 -13.29,2.99 -15.93,-70.88 z m 20.25,84.68 2.94,13.07 -15.59,3.5 -2.94,-13.07 z m 55.4,-66.01 2.41,10.7 -32.18,7.24 -2.41,-10.7 z m 83.81,-54.44 22.12,99.16 -14.12,3.15 -9.66,-43.32 -25.99,5.79 9.66,43.33 -14.11,3.14 -22.12,-99.16 14.11,-3.15 10.04,45 25.99,-5.8 -10.03,-44.99 z m 92.17,17.67 c 3.18,14.65 4.57,25.01 0.55,31.87 -3.21,5.81 -9.08,8.96 -16.65,10.61 -7.58,1.64 -14.06,1.16 -19.39,-2.78 -6.5,-4.58 -9.7,-14.55 -12.88,-29.2 -3.18,-14.65 -4.4,-25.05 -0.38,-31.91 3.21,-5.8 8.91,-8.93 16.48,-10.57 7.58,-1.65 14.23,-1.2 19.56,2.75 6.5,4.58 9.53,14.58 12.71,29.23 z m -13.31,2.89 c -2.82,-12.98 -4.59,-20.33 -8.51,-23.28 -2.07,-1.6 -5.11,-2.11 -8.24,-1.43 -3.13,0.68 -5.52,2.37 -6.75,4.68 -2.34,4.31 -1.06,11.77 1.75,24.75 2.82,12.97 4.78,20.44 8.7,23.38 2.07,1.6 4.95,2.14 8.08,1.46 3.13,-0.68 5.69,-2.4 6.91,-4.71 2.35,-4.31 0.87,-11.88 -1.94,-24.85 z m 144.39,-29.77 c 2.86,14.71 4.03,25.1 -0.14,31.87 -3.33,5.74 -9.26,8.77 -16.87,10.25 -7.61,1.48 -14.08,0.86 -19.33,-3.2 -6.4,-4.72 -9.38,-14.75 -12.24,-29.47 -2.87,-14.71 -3.87,-25.13 0.29,-31.91 3.34,-5.73 9.1,-8.73 16.72,-10.21 7.61,-1.48 14.24,-0.9 19.48,3.17 6.41,4.71 9.22,14.78 12.09,29.5 z m -13.37,2.6 c -2.54,-13.03 -4.15,-20.43 -8,-23.46 -2.04,-1.64 -5.07,-2.21 -8.22,-1.6 -3.14,0.61 -5.57,2.25 -6.84,4.53 -2.44,4.26 -1.32,11.75 1.22,24.78 2.53,13.03 4.34,20.54 8.19,23.57 2.04,1.64 4.9,2.24 8.05,1.63 3.14,-0.61 5.74,-2.28 7.01,-4.57 2.43,-4.25 1.12,-11.85 -1.41,-24.88 z m 84.05,12.84 1.58,8.83 -13.26,2.37 1.18,6.61 c 1.3,7.31 6.43,10.17 15.22,8.6 l 1.83,10.24 c -7.29,1.3 -14.07,1.65 -20.05,-1.19 -5.4,-2.51 -8.98,-7.24 -10.33,-14.83 l -1.26,-7.03 -9.78,1.74 -1.58,-8.83 9.78,-1.75 -11.42,-63.92 13.41,-2.4 11.42,63.93 z m 62.62,-9.93 1.31,8.88 -13.32,1.97 0.98,6.64 c 1.09,7.35 6.13,10.36 14.96,9.05 l 1.52,10.29 c -7.33,1.09 -14.11,1.23 -20,-1.78 -5.33,-2.67 -8.76,-7.51 -9.89,-15.14 l -1.05,-7.06 -9.83,1.45 -1.31,-8.87 9.83,-1.46 -9.51,-64.24 13.47,-1.99 9.51,64.24 z m 112.93,-76.51 0.66,10.38 c -9.08,0.58 -13.74,4.17 -13.24,12 l 2.77,43.31 13.44,-0.86 0.58,8.96 -13.45,0.86 1.29,20.22 -13.59,0.87 -1.29,-20.22 -9.92,0.63 -0.57,-8.96 9.92,-0.63 -2.8,-43.74 c -0.49,-7.69 1.85,-13.27 6.5,-17.01 5.28,-4.32 11.97,-5.32 19.7,-5.81 z m 83.38,33.29 c 0.51,14.98 0.02,25.43 -5.16,31.46 -4.21,5.13 -10.54,7.19 -18.29,7.45 -7.75,0.26 -14.04,-1.37 -18.57,-6.21 -5.58,-5.67 -6.94,-16.05 -7.44,-31.03 -0.51,-14.98 0.15,-25.43 5.33,-31.46 4.2,-5.14 10.37,-7.19 18.12,-7.45 7.75,-0.26 14.2,1.37 18.74,6.21 5.58,5.66 6.77,16.05 7.27,31.03 z m -13.61,0.46 c -0.45,-13.27 -0.87,-20.82 -4.2,-24.43 -1.75,-1.94 -4.65,-2.98 -7.85,-2.87 -3.2,0.1 -5.86,1.34 -7.48,3.39 -3.07,3.82 -3.16,11.39 -2.71,24.66 0.45,13.27 1.04,20.96 4.37,24.56 1.75,1.94 4.49,2.99 7.69,2.89 3.2,-0.11 6.02,-1.35 7.64,-3.4 3.08,-3.82 2.99,-11.53 2.54,-24.8 z m 152.74,-0.26 c -0.37,17.13 -1.25,27.1 -6.92,32.55 -3.95,3.76 -8.69,5.22 -14.59,5.09 -3.54,-0.07 -6.73,-0.99 -9.39,-2.47 -1.67,-0.88 -4.49,-3.23 -5.3,-4.67 l -0.12,5.69 -13.11,-0.29 2.17,-101.57 13.62,0.29 -0.7,32.8 c 1.21,-1.54 3.27,-3.21 4.97,-4.03 2.73,-1.36 5.95,-2 9.49,-1.92 6.4,0.13 10.9,2.07 14.36,5.71 5.43,5.69 5.89,15.69 5.52,32.82 z m -13.62,-0.29 c 0.29,-13.28 0.28,-20.84 -2.84,-24.62 -1.65,-2.04 -4.49,-3.24 -7.52,-3.31 -2.7,-0.05 -5.24,0.46 -7.13,1.99 -2.23,1.81 -3.47,4.64 -3.55,8.64 l -0.73,33.82 c -0.08,4 1.04,6.74 3.19,8.64 1.82,1.61 4.33,2.38 7.03,2.43 3.03,0.07 5.92,-1.01 7.65,-2.97 3.28,-3.65 3.62,-11.35 3.9,-24.62 z m 97.68,-33.26 -2.61,53.59 c -0.37,7.56 -3.3,12.42 -7.68,15.92 -4.19,3.22 -10.16,4.64 -17.23,4.29 -6.74,-0.32 -12.86,-2.76 -16.56,-6.22 -5,-4.67 -6.24,-10.3 -5.96,-16.01 l 13.61,0.66 c -0.2,4 0.53,6.46 2.78,8.72 1.62,1.51 3.59,2.6 6.62,2.75 6.73,0.33 10.45,-3.21 10.78,-10.06 l 0.57,-11.7 -8.92,-0.43 c -9.1,-0.44 -14.06,-2.39 -18.27,-5.88 -4.85,-4.09 -7.25,-10.21 -6.91,-17.05 0.37,-7.71 2.83,-13.16 6.34,-16.28 4.22,-3.64 8.84,-5.12 15.24,-4.81 4.71,0.23 7.53,1.36 10.14,3.2 1.63,1.22 3.56,3.17 4.81,5.23 l 0.31,-6.55 z m -14.61,19.86 c 0.34,-6.85 -3.81,-11.77 -10.38,-12.09 -7.07,-0.34 -10.83,4.19 -11.21,11.89 -0.19,4 1.12,8.21 3.55,10.33 2.59,2.27 5.42,2.98 9.63,3.18 l 7.75,0.38 z m 100.16,6.45 c -0.39,4.69 -2.08,8.71 -4.67,11.5 -2.81,3.2 -6.87,5.43 -12.95,7.36 l -11.48,3.76 c -3.65,1.13 -6.31,2.62 -7.63,4.23 -1.14,1.48 -1.79,3.15 -1.96,5.28 -0.23,2.7 0.56,5.35 2.59,7.38 1.72,1.72 4.16,2.79 7.35,3.06 2.69,0.22 5.44,-0.26 7.61,-1.94 2.35,-1.81 3.58,-4.29 3.93,-8.56 l 13.41,1.13 c -0.61,7.26 -3.57,12.31 -8.4,15.63 -4.49,3.19 -10.51,4.4 -17.39,3.82 -6.72,-0.57 -12.61,-2.91 -16.66,-6.97 -4.04,-4.07 -6.48,-9.14 -5.95,-15.54 0.33,-3.85 1.43,-6.9 3.5,-9.45 2.44,-2.95 6.71,-5.6 12.62,-7.54 l 11.66,-3.89 c 3.66,-1.27 6.31,-2.62 8.17,-4.61 1.68,-1.87 2.53,-3.94 2.74,-6.5 0.25,-2.99 -0.86,-5.81 -2.73,-7.68 -2.03,-2.04 -4.48,-3.1 -8.01,-3.4 -2.69,-0.22 -5.78,0.37 -7.94,1.91 -2.71,2.07 -4.13,4.81 -4.45,8.65 l -13.4,-1.12 c 0.56,-6.69 3.34,-11.61 8.73,-15.6 4.5,-3.34 10.88,-4.8 17.93,-4.2 7.06,0.59 12.96,2.79 17.3,7.3 4.05,4.07 6.63,9.44 6.08,15.99 z m 68.57,-13.44 -1.11,10.34 c -9.04,-0.96 -14.24,1.78 -15.08,9.59 l -4.6,43.15 13.39,1.43 -0.95,8.93 -13.4,-1.43 -2.15,20.15 -13.54,-1.45 2.15,-20.15 -9.88,-1.05 0.95,-8.93 9.88,1.06 4.65,-43.58 c 0.82,-7.67 4.07,-12.78 9.29,-15.66 5.94,-3.38 12.69,-3.22 20.4,-2.4 z m 82.49,10.53 -10.2,73.2 -13.49,-1.88 7.5,-53.85 c 0.95,-6.79 -3.09,-10.81 -8.77,-11.6 -5.67,-0.79 -10.82,1.95 -11.77,8.74 l -7.5,53.85 -13.49,-1.88 7.5,-53.85 c 1.11,-7.92 3.32,-11.64 7.27,-14.4 4.16,-3.02 8.91,-4.22 15.42,-3.32 3.51,0.49 6.56,1.78 9.04,3.56 1.7,1.25 3.78,3.41 4.71,5.26 l 0.79,-5.64 z m 63.99,75.05 -1.92,10.95 c -5.47,-0.96 -9.89,-3.03 -13.45,-6.11 -1.93,-1.64 -4.07,-4.05 -5.06,-6.25 l -1.36,7.72 -12.92,-2.27 12.78,-72.8 13.41,2.35 -8.71,49.62 c -1.45,8.3 4.13,14.49 13.25,16.1 z m 82.74,-14.08 c -3.19,15.5 -6.05,27.75 -14.49,32.86 -5.28,3.13 -11.04,3.54 -17.97,2.12 -6.77,-1.4 -12.04,-4.22 -15.68,-9.04 -5.41,-7.09 -4.02,-18.03 -0.88,-33.26 3.13,-15.24 6.34,-25.81 14.11,-30.19 5.25,-2.99 10.54,-3.64 17.97,-2.11 6.77,1.39 12.56,4.18 15.9,8.79 3.75,5.15 4.63,10.87 3.47,17.33 l -13.17,-2.71 c 0.69,-3.35 0.16,-6.67 -1.28,-8.86 -1.6,-2.23 -3.88,-3.72 -7.02,-4.36 -3.46,-0.71 -6.06,0.21 -8.06,1.55 -3.63,2.6 -5.68,9.18 -8.04,20.65 z m -15.09,5.76 -21.8,-4.48 c -2.01,9.79 -2.4,15.84 -0.3,19.04 1.31,2.02 3.33,3.89 6.8,4.6 3.46,0.72 6.23,-0.17 8.22,-1.51 3.19,-2.11 5.06,-7.85 7.08,-17.65 z m 169.92,76.62 -14.81,-4.52 6.58,-56.19 -28.01,49.65 -11.76,-3.59 5.14,-56.63 -25.75,50.33 -14.82,-4.52 38.81,-65.43 13.21,4.03 -4.84,55.08 27.07,-48.29 13.21,4.03 z m 89.65,-9.43 c -5.74,14.76 -10.6,26.35 -19.77,29.99 -5.73,2.21 -11.47,1.65 -18.07,-0.91 -6.45,-2.5 -11.17,-6.16 -13.96,-11.53 -4.15,-7.89 -0.95,-18.45 4.68,-32.94 5.63,-14.5 10.56,-24.39 18.94,-27.41 5.68,-2.08 11.01,-1.83 18.08,0.91 6.44,2.5 11.69,6.22 14.21,11.32 2.84,5.7 2.76,11.49 0.54,17.67 l -12.54,-4.87 c 1.24,-3.19 1.27,-6.55 0.22,-8.95 -1.22,-2.46 -3.21,-4.31 -6.2,-5.47 -3.3,-1.28 -6.01,-0.8 -8.21,0.18 -4.01,1.97 -7.12,8.11 -11.36,19.03 z m -15.85,3.17 -20.74,-8.05 c -3.62,9.31 -5,15.21 -3.47,18.72 0.95,2.2 2.63,4.39 5.93,5.67 3.3,1.28 6.18,0.87 8.37,-0.12 3.49,-1.55 6.29,-6.9 9.91,-16.22 z m 163.01,27.64 -36.62,66.34 -11.63,-6.42 2.54,-4.6 c -1.79,0.8 -4.38,1.32 -6.27,1.25 -3.05,-0.06 -6.27,-0.86 -9.37,-2.57 -5.9,-3.26 -8.61,-6.7 -9.98,-11.52 -2.16,-7.23 0.72,-15.58 9,-30.58 8.28,-15 13.74,-21.76 21.01,-23.79 5.18,-1.38 9.47,-0.8 15.08,2.29 3.39,1.88 5.48,3.68 7,6.15 1.06,1.57 1.94,4.17 2.21,6.11 l 5.38,-9.74 c 3.38,-6.13 4.29,-9.86 3.33,-13 -0.72,-2.19 -2.38,-4.42 -5.18,-5.96 -2.66,-1.47 -5.29,-1.94 -7.67,-1.46 -3.1,0.73 -5.21,3.15 -6.93,6.28 l -11.78,-6.5 c 3.1,-5.63 7.2,-9.56 13.47,-10.83 5.54,-1 11.97,0.6 17.87,3.86 5.91,3.25 10.55,8.09 12.36,13.16 2.2,6.1 1.42,12.03 -3.82,21.53 z m -24.13,15.54 c 1.86,-3.38 1.99,-6.4 1.12,-9.01 -0.87,-2.27 -2.67,-4.24 -5.18,-5.62 -2.95,-1.63 -5.49,-1.57 -8.01,-0.84 -4.46,1.45 -8.34,7.79 -14.21,18.41 -5.86,10.62 -9.15,17.29 -8,21.83 0.72,2.52 2.02,4.71 4.97,6.34 2.51,1.38 5.14,1.85 7.52,1.38 2.82,-0.57 5.09,-2.25 7.02,-5.75 z m 85.59,72.34 c -8.82,12.12 -15.64,20.04 -23.43,21.61 -6.47,1.46 -12.73,-0.82 -19,-5.38 -6.27,-4.57 -10.22,-9.72 -10.81,-16.33 -0.91,-7.9 4.41,-16.92 13.23,-29.04 8.83,-12.11 15.78,-19.94 23.57,-21.51 6.47,-1.46 12.6,0.72 18.86,5.28 6.27,4.57 10.36,9.83 10.96,16.43 0.9,7.9 -4.55,16.82 -13.38,28.94 z m -11.01,-8.02 c 7.82,-10.73 12.13,-16.95 11.73,-21.83 -0.19,-2.61 -1.83,-5.22 -4.42,-7.11 -2.59,-1.88 -5.44,-2.55 -7.98,-1.92 -4.77,1.11 -9.5,7.03 -17.32,17.76 -7.81,10.73 -12.08,17.17 -11.67,22.05 0.18,2.61 1.69,5.12 4.28,7.01 2.59,1.88 5.58,2.64 8.12,2.02 4.77,-1.11 9.45,-7.25 17.26,-17.98" /></g></g></svg>